<svg width="36" height="37" viewBox="0 0 36 37" fill="none" xmlns="http://www.w3.org/2000/svg">
<rect y="0.75" width="36" height="36" rx="18" fill="black"/>
<g clip-path="url(#clip0_1_306)">
<path d="M23.9 11.55C23.2 11.55 22.6 12.15 22.6 12.85C22.6 13.55 23.2 14.15 23.9 14.15C24.6 14.15 25.2 13.55 25.2 12.85C25.2 12.15 24.6 11.55 23.9 11.55ZM18 22.45C16 22.45 14.3 20.85 14.3 18.75C14.3 16.75 15.9 15.05 18 15.05C20 15.05 21.7 16.65 21.7 18.75C21.7 20.75 20 22.45 18 22.45ZM18 13.15C14.9 13.15 12.4 15.65 12.4 18.75C12.4 21.85 14.9 24.35 18 24.35C21.1 24.35 23.6 21.85 23.6 18.75C23.6 15.65 21.1 13.15 18 13.15ZM27 23.15C27 24.25 26.8 24.85 26.6 25.15C26.4 25.65 26.2 26.05 25.8 26.45C25.4 26.85 25 27.05 24.5 27.25C24.1 27.45 23.5 27.55 22.5 27.65C21.3 27.75 20.9 27.75 18 27.75C15.1 27.75 14.7 27.75 13.6 27.65C12.5 27.65 11.9 27.45 11.6 27.25C11.1 27.05 10.7 26.85 10.3 26.45C9.9 26.05 9.7 25.65 9.5 25.15C9.4 24.75 9.2 24.15 9.1 23.15C9 22.05 9 21.65 9 18.75C9 15.85 9 15.45 9.1 14.35C9.1 13.25 9.3 12.65 9.5 12.35C9.7 11.85 9.9 11.45 10.3 11.05C10.7 10.65 11.1 10.45 11.6 10.25C12 10.05 12.6 9.95 13.6 9.85C14.7 9.75 15.1 9.75 18 9.75C20.9 9.75 21.3 9.75 22.4 9.85C23.5 9.85 24.1 10.05 24.4 10.25C24.9 10.45 25.3 10.65 25.7 11.05C26.1 11.45 26.3 11.85 26.5 12.35C26.7 12.75 26.8 13.35 26.9 14.35C27 15.45 27 15.85 27 18.75V23.15ZM28.9 14.25C28.8 13.05 28.7 12.25 28.4 11.55C28.1 10.85 27.7 10.25 27.1 9.65C26.5 9.05 25.9 8.65 25.2 8.35C24.5 8.05 23.7 7.85 22.5 7.85C21.4 7.75 21 7.75 18 7.75C15 7.75 14.6 7.75 13.5 7.85C12.3 7.95 11.5 8.05 10.8 8.35C10.1 8.65 9.5 9.05 8.9 9.65C8.3 10.25 7.9 10.85 7.6 11.55C7.3 12.25 7.1 13.05 7.1 14.25C7 15.35 7 15.75 7 18.75C7 21.75 7 22.15 7.1 23.25C7.2 24.45 7.3 25.25 7.6 25.95C7.9 26.65 8.3 27.25 8.9 27.85C9.5 28.45 10.1 28.85 10.8 29.15C11.5 29.45 12.3 29.65 13.5 29.65C14.6 29.75 15 29.75 18 29.75C21 29.75 21.4 29.75 22.5 29.65C23.7 29.55 24.5 29.45 25.2 29.15C25.9 28.85 26.5 28.45 27.1 27.85C27.7 27.25 28.1 26.65 28.4 25.95C28.7 25.25 28.9 24.45 28.9 23.25C29 22.15 29 21.75 29 18.75C29 15.75 29 15.35 28.9 14.25Z" fill="white"/>
</g>
<defs>
<clipPath id="clip0_1_306">
<rect width="36" height="36" fill="white" transform="translate(0 0.75)"/>
</clipPath>
</defs>
</svg>
