<svg width="36" height="37" viewBox="0 0 36 37" fill="none" xmlns="http://www.w3.org/2000/svg">
<rect y="0.75" width="36" height="36" rx="18" fill="black"/>
<g clip-path="url(#clip0_1_312)">
<path d="M27.5 13.05C26.8 13.35 26 13.55 25.2 13.65C26 13.15 26.6 12.35 26.9 11.45C26.1 11.95 25.3 12.25 24.4 12.45C23.7 11.65 22.6 11.25 21.5 11.25C19.3 11.25 17.5 13.05 17.5 15.25C17.5 15.55 17.5 15.85 17.6 16.15C14.3 15.95 11.4 14.45 9.39999 12.05C9.09999 12.65 8.89999 13.35 8.89999 14.05C8.89999 15.45 9.59999 16.65 10.7 17.35C10.1 17.35 9.39999 17.15 8.89999 16.85C8.89999 18.75 10.3 20.35 12.1 20.75C11.8 20.85 11.4 20.85 11.1 20.85C10.8 20.85 10.6 20.85 10.4 20.75C10.9 22.35 12.4 23.45 14.1 23.45C12.7 24.55 11 25.15 9.19999 25.15C8.89999 25.15 8.59999 25.15 8.29999 25.05C10.1 26.15 12.1 26.85 14.4 26.85C21.7 26.85 25.7 20.85 25.7 15.55V15.05C26.3 14.55 26.9 13.85 27.5 13.05Z" fill="white"/>
</g>
<defs>
<clipPath id="clip0_1_312">
<rect width="36" height="36" fill="white" transform="translate(0 0.75)"/>
</clipPath>
</defs>
</svg>
