<svg width="70" height="71" viewBox="0 0 70 71" fill="none" xmlns="http://www.w3.org/2000/svg">
<rect y="0.859375" width="70" height="70" rx="35" fill="black" fill-opacity="0.2"/>
<g clip-path="url(#clip0_1_83)">
<path d="M35 67.8594C17.4 67.8594 3 53.4594 3 35.8594C3 18.2594 17.4 3.85938 35 3.85938C52.6 3.85938 67 18.2594 67 35.8594C67 53.4594 52.6 67.8594 35 67.8594ZM35 5.85938C18.5 5.85938 5 19.3594 5 35.8594C5 52.3594 18.5 65.8594 35 65.8594C51.5 65.8594 65 52.3594 65 35.8594C65 19.3594 51.5 5.85938 35 5.85938Z" fill="white"/>
<path d="M19 42.8594C18.7 42.8594 18.5 42.7594 18.3 42.5594L11.6 35.8594L18.3 29.1594C18.7 28.7594 19.3 28.7594 19.7 29.1594C20.1 29.5594 20.1 30.1594 19.7 30.5594L14.4 35.8594L19.7 41.1594C20.1 41.5594 20.1 42.1594 19.7 42.5594C19.5 42.7594 19.3 42.8594 19 42.8594Z" fill="white"/>
<path d="M51 42.8594C50.7 42.8594 50.5 42.7594 50.3 42.5594C49.9 42.1594 49.9 41.5594 50.3 41.1594L55.6 35.8594L50.3 30.5594C49.9 30.1594 49.9 29.5594 50.3 29.1594C50.7 28.7594 51.3 28.7594 51.7 29.1594L58.4 35.8594L51.7 42.5594C51.5 42.7594 51.3 42.8594 51 42.8594Z" fill="white"/>
</g>
<defs>
<clipPath id="clip0_1_83">
<rect width="70" height="70" fill="white" transform="translate(0 0.859375)"/>
</clipPath>
</defs>
</svg>
